<?xml version="1.0" encoding="UTF-8"?>
<svg id="Layer_1" data-name="Layer 1" xmlns="http://www.w3.org/2000/svg" viewBox="0 0 492.62 430.08">
  <defs>
    <style>
      .cls-1, .cls-2 {
        fill: none;
        stroke: #fff;
        stroke-linecap: round;
        stroke-linejoin: round;
        stroke-width: 4px;
      }

      .cls-2 {
        fill-rule: evenodd;
      }
    </style>
  </defs>
  <g>
    <path class="cls-1" d="M66.3,409.43H21.21l-7.79,18.65H2l39.8-93.38h4.04l39.8,93.38h-11.55l-7.79-18.65Zm-22.55-54.97l-18.37,45.23H62.12l-18.37-45.23Z"/>
    <path class="cls-1" d="M189.46,428.08l-28.53-38.55h-19.62v38.55h-10.86v-91.85h32.29c17.81,0,29.37,11.13,29.37,26.58,0,12.39-7.24,21.99-19.34,25.47l29.37,39.8h-12.67Zm-48.15-48.29h21.01c11.83,0,18.51-6.68,18.51-16.84s-6.82-16.98-18.51-16.98h-21.01v33.82Z"/>
    <path class="cls-1" d="M244.85,336.23h58.87v9.74h-48.01v28.11h36.74v9.74h-36.74v34.51h49.68v9.74h-60.54v-91.85Z"/>
    <path class="cls-1" d="M351.45,336.23h10.86v91.85h-10.86v-91.85Z"/>
    <path class="cls-1" d="M471.27,409.43h-45.09l-7.79,18.65h-11.41l39.8-93.38h4.04l39.8,93.38h-11.55l-7.79-18.65Zm-22.55-54.97l-18.37,45.23h36.74l-18.37-45.23Z"/>
  </g>
  <g>
    <path class="cls-2" d="M209.77,279.11c28.5-49.21,61.91-107.15,89.78-155.51l2.46-4.27-24.52-42.46-116.73,202.13h-12.6c-8.76-15.02-22.12-38.24-30.68-53.14L246.69,2l6.27,10.82c-39.6,68.58-80.49,139.39-120.83,209.05l-2.3,3.98,24.53,42.47,6.88-11.92c20.48-35.46,40.98-70.92,61.49-106.38,18.26-31.58,36.52-63.16,54.76-94.74l36.98,64.05c-17.33,29.95-34.86,60.33-51.84,89.75-7.57,13.12-34.26,59.35-34.26,59.35h110.1l25.04-42.59-24.48-42.38-20.06,34.33h-12.25l32.28-55.89,36.98,63.95-31.35,53.25H209.77Z"/>
    <path class="cls-2" d="M387,245.82l-28.54,49.14H134.37l-28.72-49.46-6.22,10.68c12.33,21.25,24.49,42.15,28.74,49.46l236.44,.11,28.57-49.13-6.18-10.8Z"/>
  </g>
</svg>