<?xml version="1.0" encoding="UTF-8"?>
<svg id="Layer_2" data-name="Layer 2" xmlns="http://www.w3.org/2000/svg" viewBox="0 0 297.75 307.74">
  <defs>
    <style>
      .cls-1 {
        fill: #231f20;
        fill-rule: evenodd;
        stroke: #fff;
        stroke-linecap: round;
        stroke-linejoin: round;
        stroke-width: 4px;
      }
    </style>
  </defs>
  <g id="Layer_1-2" data-name="Layer 1">
    <g>
      <path class="cls-1" d="M112.33,279.11c28.5-49.21,61.91-107.15,89.78-155.51l2.46-4.27-24.52-42.46L63.33,279h-12.6c-8.76-15.02-22.12-38.24-30.68-53.14L149.26,2l6.27,10.82C115.93,81.4,75.04,152.21,34.7,221.87l-2.3,3.98,24.53,42.47,6.88-11.92c20.48-35.46,40.98-70.92,61.49-106.38,18.26-31.58,36.52-63.16,54.76-94.74l36.98,64.05c-17.33,29.95-34.86,60.33-51.84,89.75-7.57,13.12-34.26,59.35-34.26,59.35h110.1l25.04-42.59-24.48-42.38-20.06,34.33h-12.25l32.28-55.89,36.98,63.95-31.35,53.25H112.33Z"/>
      <path class="cls-1" d="M289.57,245.82l-28.54,49.14H36.94l-28.72-49.46-6.22,10.68c12.33,21.25,24.49,42.15,28.74,49.46l236.44,.11,28.57-49.13-6.18-10.8Z"/>
    </g>
  </g>
</svg>